{"title":"Transformers.Revenge.of.the.Fallen.2009.SWESUB.DVDRip.XviD.AC3.(","uid":5675038,"size":1474612684,"categoryP":"video","categoryS":"movies","magnet":"?xt=urn:btih:9b8926eb059e6f1f6350fe24b511c35b55dde81b&amp;dn=Transformers.Revenge.of.the.Fallen.2009.SWESUB.DVDRip.XviD.AC3.%28&amp;tr=udp%3A%2F%2Ftracker.openbittorrent.com%3A80&amp;tr=udp%3A%2F%2Fopen.demonii.com%3A1337&amp;tr=udp%3A%2F%2Ftracker.coppersurfer.tk%3A6969&amp;tr=udp%3A%2F%2Fexodus.desync.com%3A6969","seeders":0,"leechers":1,"uploader":null,"files":1,"time":1278490750,"description":"General\nComplete name                    : Transformers.Revenge.of.the.Fallen.2009.avi\nFormat                           : AVI\nFile size                        : 1.37 GiB\nDuration                         : 2h 29mn\nOverall bit rate                 : 1 312 Kbps\n\nVideo\n\nFormat                           : MPEG-4 Visual\nCodec ID/Hint                    : XviD\nDuration                         : 2h 29mn\nBit rate                         : 853 Kbps\nWidth                            : 720 pixels\nHeight                           : 428 pixels\nDisplay aspect ratio             : 2.35:1\nStream size                      : 914 MiB (65%)\nWriting library                  : XviD 1.1.2 (UTC 2006-11-01)\n\nAudio\n\nFormat                           : AC-3\nDuration                         : 2h 29mn\nBit rate                         : 448 Kbps\nChannel(s)                       : 6 channels\nChannel positions                : Front: L C R, Side: L R, LFE\nSampling rate                    : 48.0 KHz\nStream size                      : 480 MiB (34%)\n\n\n","torrent":{"xt":"urn:btih:9b8926eb059e6f1f6350fe24b511c35b55dde81b","amp;dn":"Transformers.Revenge.of.the.Fallen.2009.SWESUB.DVDRip.XviD.AC3.%28","amp;tr":["udp%3A%2F%2Ftracker.openbittorrent.com%3A80","udp%3A%2F%2Fopen.demonii.com%3A1337","udp%3A%2F%2Ftracker.coppersurfer.tk%3A6969","udp%3A%2F%2Fexodus.desync.com%3A6969"],"infoHash":"9b8926eb059e6f1f6350fe24b511c35b55dde81b","infoHashBuffer":{"type":"Buffer","data":[155,137,38,235,5,158,111,31,99,80,254,36,181,17,195,91,85,221,232,27]},"announce":[],"urlList":[]}}